<?xml version="1.0" encoding="UTF-8" standalone="no"?>
<!DOCTYPE svg PUBLIC "-//W3C//DTD SVG 1.1//EN"
 "http://www.w3.org/Graphics/SVG/1.1/DTD/svg11.dtd">
<!-- Generated by graphviz version 2.43.0 (0)
 -->
<!-- Title: pastafarianism Pages: 1 -->
<svg width="1208pt" height="548pt"
 viewBox="0.00 0.00 1208.14 548.00" xmlns="http://www.w3.org/2000/svg" xmlns:xlink="http://www.w3.org/1999/xlink">
<g id="graph0" class="graph" transform="scale(1 1) rotate(0) translate(4 544)">
<title>pastafarianism</title>
<polygon fill="white" stroke="transparent" points="-4,4 -4,-544 1204.14,-544 1204.14,4 -4,4"/>
<!-- OverrideOrContinueFallback -->
<g id="node1" class="node">
<title>OverrideOrContinueFallback</title>
<polygon fill="cyan" stroke="black" points="363.73,-514.54 363.73,-529.46 308.54,-540 230.48,-540 175.28,-529.46 175.28,-514.54 230.48,-504 308.54,-504 363.73,-514.54"/>
<text text-anchor="middle" x="269.51" y="-519.8" font-family="Times,serif" font-size="9.00">OverrideOrContinueFallback</text>
</g>
<!-- CheckOverrideAndEndSequence -->
<g id="node2" class="node">
<title>CheckOverrideAndEndSequence</title>
<polygon fill="orange" stroke="black" points="263.01,-468 94.01,-468 94.01,-432 263.01,-432 263.01,-468"/>
<text text-anchor="middle" x="178.51" y="-447.8" font-family="Times,serif" font-size="9.00">CheckOverrideAndEndSequence</text>
</g>
<!-- OverrideOrContinueFallback&#45;&gt;CheckOverrideAndEndSequence -->
<g id="edge1" class="edge">
<title>OverrideOrContinueFallback&#45;&gt;CheckOverrideAndEndSequence</title>
<path fill="none" stroke="black" d="M247.01,-503.7C235.55,-494.88 221.45,-484.03 209.03,-474.47"/>
<polygon fill="black" stroke="black" points="210.8,-471.43 200.74,-468.1 206.54,-476.98 210.8,-471.43"/>
</g>
<!-- StartGameSequence -->
<g id="node5" class="node">
<title>StartGameSequence</title>
<polygon fill="orange" stroke="black" points="523.01,-468 400.01,-468 400.01,-432 523.01,-432 523.01,-468"/>
<text text-anchor="middle" x="461.51" y="-447.8" font-family="Times,serif" font-size="9.00">Ⓜ StartGameSequence</text>
</g>
<!-- OverrideOrContinueFallback&#45;&gt;StartGameSequence -->
<g id="edge4" class="edge">
<title>OverrideOrContinueFallback&#45;&gt;StartGameSequence</title>
<path fill="none" stroke="black" d="M313.56,-504.94C340.71,-495.04 375.8,-482.25 404.99,-471.6"/>
<polygon fill="black" stroke="black" points="406.45,-474.8 414.65,-468.08 404.05,-468.22 406.45,-474.8"/>
</g>
<!-- CheckOverride -->
<g id="node3" class="node">
<title>CheckOverride</title>
<ellipse fill="gray" stroke="black" cx="75.51" cy="-378" rx="49.8" ry="18"/>
<text text-anchor="middle" x="75.51" y="-375.8" font-family="Times,serif" font-size="9.00">CheckOverride</text>
</g>
<!-- CheckOverrideAndEndSequence&#45;&gt;CheckOverride -->
<g id="edge2" class="edge">
<title>CheckOverrideAndEndSequence&#45;&gt;CheckOverride</title>
<path fill="none" stroke="black" d="M153.31,-431.88C139.17,-422.27 121.42,-410.2 106.44,-400.02"/>
<polygon fill="black" stroke="black" points="108.23,-397.01 97.99,-394.28 104.29,-402.8 108.23,-397.01"/>
</g>
<!-- EndGame -->
<g id="node4" class="node">
<title>EndGame</title>
<ellipse fill="gray" stroke="black" cx="178.51" cy="-378" rx="35.59" ry="18"/>
<text text-anchor="middle" x="178.51" y="-375.8" font-family="Times,serif" font-size="9.00">EndGame</text>
</g>
<!-- CheckOverrideAndEndSequence&#45;&gt;EndGame -->
<g id="edge3" class="edge">
<title>CheckOverrideAndEndSequence&#45;&gt;EndGame</title>
<path fill="none" stroke="black" d="M178.51,-431.7C178.51,-423.98 178.51,-414.71 178.51,-406.11"/>
<polygon fill="black" stroke="black" points="182.01,-406.1 178.51,-396.1 175.01,-406.1 182.01,-406.1"/>
</g>
<!-- SetParamsOrHandleRepeatedFallback -->
<g id="node6" class="node">
<title>SetParamsOrHandleRepeatedFallback</title>
<polygon fill="cyan" stroke="black" points="488.73,-370.54 488.73,-385.46 413.62,-396 307.4,-396 232.29,-385.46 232.29,-370.54 307.4,-360 413.62,-360 488.73,-370.54"/>
<text text-anchor="middle" x="360.51" y="-375.8" font-family="Times,serif" font-size="9.00">Ⓜ SetParamsOrHandleRepeatedFallback</text>
</g>
<!-- StartGameSequence&#45;&gt;SetParamsOrHandleRepeatedFallback -->
<g id="edge5" class="edge">
<title>StartGameSequence&#45;&gt;SetParamsOrHandleRepeatedFallback</title>
<path fill="none" stroke="black" d="M436.8,-431.88C423.84,-422.89 407.78,-411.76 393.74,-402.03"/>
<polygon fill="black" stroke="black" points="395.52,-399.01 385.31,-396.19 391.54,-404.76 395.52,-399.01"/>
</g>
<!-- ProvideSequence -->
<g id="node11" class="node">
<title>ProvideSequence</title>
<ellipse fill="gray" stroke="black" cx="562.51" cy="-378" rx="56.01" ry="18"/>
<text text-anchor="middle" x="562.51" y="-375.8" font-family="Times,serif" font-size="9.00">ProvideSequence</text>
</g>
<!-- StartGameSequence&#45;&gt;ProvideSequence -->
<g id="edge10" class="edge">
<title>StartGameSequence&#45;&gt;ProvideSequence</title>
<path fill="none" stroke="black" d="M486.22,-431.88C499.98,-422.33 517.25,-410.37 531.87,-400.24"/>
<polygon fill="black" stroke="black" points="533.9,-403.09 540.12,-394.51 529.91,-397.33 533.9,-403.09"/>
</g>
<!-- HandleResponseAndEndRepetition -->
<g id="node12" class="node">
<title>HandleResponseAndEndRepetition</title>
<polygon fill="orange" stroke="black" points="828.01,-396 637.01,-396 637.01,-360 828.01,-360 828.01,-396"/>
<text text-anchor="middle" x="732.51" y="-375.8" font-family="Times,serif" font-size="9.00">Ⓜ HandleResponseAndEndRepetition</text>
</g>
<!-- StartGameSequence&#45;&gt;HandleResponseAndEndRepetition -->
<g id="edge11" class="edge">
<title>StartGameSequence&#45;&gt;HandleResponseAndEndRepetition</title>
<path fill="none" stroke="black" d="M523.34,-433.03C562.97,-422.79 614.67,-409.44 656.76,-398.57"/>
<polygon fill="black" stroke="black" points="657.88,-401.89 666.68,-396 656.13,-395.11 657.88,-401.89"/>
</g>
<!-- CheckInitialAndSetParamsSequence -->
<g id="node7" class="node">
<title>CheckInitialAndSetParamsSequence</title>
<polygon fill="orange" stroke="black" points="299.01,-324 102.01,-324 102.01,-288 299.01,-288 299.01,-324"/>
<text text-anchor="middle" x="200.51" y="-303.8" font-family="Times,serif" font-size="9.00">Ⓜ CheckInitialAndSetParamsSequence</text>
</g>
<!-- SetParamsOrHandleRepeatedFallback&#45;&gt;CheckInitialAndSetParamsSequence -->
<g id="edge6" class="edge">
<title>SetParamsOrHandleRepeatedFallback&#45;&gt;CheckInitialAndSetParamsSequence</title>
<path fill="none" stroke="black" d="M321.37,-359.88C299.5,-350.31 272.05,-338.3 248.85,-328.15"/>
<polygon fill="black" stroke="black" points="250.09,-324.87 239.52,-324.07 247.28,-331.28 250.09,-324.87"/>
</g>
<!-- HandleRepeatedSequence -->
<g id="node10" class="node">
<title>HandleRepeatedSequence</title>
<ellipse fill="gray" stroke="black" cx="396.51" cy="-306" rx="79.85" ry="18"/>
<text text-anchor="middle" x="396.51" y="-303.8" font-family="Times,serif" font-size="9.00">HandleRepeatedSequence</text>
</g>
<!-- SetParamsOrHandleRepeatedFallback&#45;&gt;HandleRepeatedSequence -->
<g id="edge9" class="edge">
<title>SetParamsOrHandleRepeatedFallback&#45;&gt;HandleRepeatedSequence</title>
<path fill="none" stroke="black" d="M369.41,-359.7C373.51,-351.73 378.46,-342.1 383,-333.26"/>
<polygon fill="black" stroke="black" points="386.25,-334.6 387.71,-324.1 380.03,-331.4 386.25,-334.6"/>
</g>
<!-- CheckInitialSequence -->
<g id="node8" class="node">
<title>CheckInitialSequence</title>
<ellipse fill="gray" stroke="black" cx="151.51" cy="-234" rx="68.25" ry="18"/>
<text text-anchor="middle" x="151.51" y="-231.8" font-family="Times,serif" font-size="9.00">CheckInitialSequence</text>
</g>
<!-- CheckInitialAndSetParamsSequence&#45;&gt;CheckInitialSequence -->
<g id="edge7" class="edge">
<title>CheckInitialAndSetParamsSequence&#45;&gt;CheckInitialSequence</title>
<path fill="none" stroke="black" d="M188.4,-287.7C182.64,-279.47 175.65,-269.48 169.3,-260.42"/>
<polygon fill="black" stroke="black" points="172.08,-258.29 163.48,-252.1 166.35,-262.3 172.08,-258.29"/>
</g>
<!-- SetSequenceParameters -->
<g id="node9" class="node">
<title>SetSequenceParameters</title>
<ellipse fill="gray" stroke="black" cx="312.51" cy="-234" rx="74.46" ry="18"/>
<text text-anchor="middle" x="312.51" y="-231.8" font-family="Times,serif" font-size="9.00">SetSequenceParameters</text>
</g>
<!-- CheckInitialAndSetParamsSequence&#45;&gt;SetSequenceParameters -->
<g id="edge8" class="edge">
<title>CheckInitialAndSetParamsSequence&#45;&gt;SetSequenceParameters</title>
<path fill="none" stroke="black" d="M227.91,-287.88C243.1,-278.38 262.13,-266.49 278.29,-256.39"/>
<polygon fill="black" stroke="black" points="280.3,-259.26 286.93,-250.99 276.59,-253.32 280.3,-259.26"/>
</g>
<!-- HandleResponseOrNoResponseFallback -->
<g id="node13" class="node">
<title>HandleResponseOrNoResponseFallback</title>
<polygon fill="cyan" stroke="black" points="830.72,-298.54 830.72,-313.46 752.69,-324 642.33,-324 564.29,-313.46 564.29,-298.54 642.33,-288 752.69,-288 830.72,-298.54"/>
<text text-anchor="middle" x="697.51" y="-303.8" font-family="Times,serif" font-size="9.00">Ⓜ HandleResponseOrNoResponseFallback</text>
</g>
<!-- HandleResponseAndEndRepetition&#45;&gt;HandleResponseOrNoResponseFallback -->
<g id="edge12" class="edge">
<title>HandleResponseAndEndRepetition&#45;&gt;HandleResponseOrNoResponseFallback</title>
<path fill="none" stroke="black" d="M723.86,-359.7C719.87,-351.73 715.06,-342.1 710.64,-333.26"/>
<polygon fill="black" stroke="black" points="713.66,-331.48 706.06,-324.1 707.4,-334.61 713.66,-331.48"/>
</g>
<!-- EndOrRepeatFallback -->
<g id="node29" class="node">
<title>EndOrRepeatFallback</title>
<polygon fill="cyan" stroke="black" points="1031.74,-298.54 1031.74,-313.46 988.26,-324 926.76,-324 883.28,-313.46 883.28,-298.54 926.76,-288 988.26,-288 1031.74,-298.54"/>
<text text-anchor="middle" x="957.51" y="-303.8" font-family="Times,serif" font-size="9.00">EndOrRepeatFallback</text>
</g>
<!-- HandleResponseAndEndRepetition&#45;&gt;EndOrRepeatFallback -->
<g id="edge28" class="edge">
<title>HandleResponseAndEndRepetition&#45;&gt;EndOrRepeatFallback</title>
<path fill="none" stroke="black" d="M787.26,-359.97C822.58,-348.98 868.3,-334.75 903.47,-323.81"/>
<polygon fill="black" stroke="black" points="904.59,-327.13 913.1,-320.82 902.51,-320.45 904.59,-327.13"/>
</g>
<!-- WaitAndHandleResponse -->
<g id="node14" class="node">
<title>WaitAndHandleResponse</title>
<polygon fill="orange" stroke="black" points="556.01,-252 411.01,-252 411.01,-216 556.01,-216 556.01,-252"/>
<text text-anchor="middle" x="483.51" y="-231.8" font-family="Times,serif" font-size="9.00">Ⓜ WaitAndHandleResponse</text>
</g>
<!-- HandleResponseOrNoResponseFallback&#45;&gt;WaitAndHandleResponse -->
<g id="edge13" class="edge">
<title>HandleResponseOrNoResponseFallback&#45;&gt;WaitAndHandleResponse</title>
<path fill="none" stroke="black" d="M645.43,-287.97C615.27,-278.1 577.12,-265.62 545.43,-255.25"/>
<polygon fill="black" stroke="black" points="546.41,-251.89 535.82,-252.11 544.24,-258.55 546.41,-251.89"/>
</g>
<!-- DecideRepeatAndSocialAction2 -->
<g id="node26" class="node">
<title>DecideRepeatAndSocialAction2</title>
<polygon fill="orange" stroke="black" points="785.51,-252 609.51,-252 609.51,-216 785.51,-216 785.51,-252"/>
<text text-anchor="middle" x="697.51" y="-231.8" font-family="Times,serif" font-size="9.00">Ⓜ DecideRepeatAndSocialAction2</text>
</g>
<!-- HandleResponseOrNoResponseFallback&#45;&gt;DecideRepeatAndSocialAction2 -->
<g id="edge25" class="edge">
<title>HandleResponseOrNoResponseFallback&#45;&gt;DecideRepeatAndSocialAction2</title>
<path fill="none" stroke="black" d="M697.51,-287.7C697.51,-279.98 697.51,-270.71 697.51,-262.11"/>
<polygon fill="black" stroke="black" points="701.01,-262.1 697.51,-252.1 694.01,-262.1 701.01,-262.1"/>
</g>
<!-- StartTimerAndWait -->
<g id="node15" class="node">
<title>StartTimerAndWait</title>
<polygon fill="orange" stroke="black" points="290.01,-180 171.01,-180 171.01,-144 290.01,-144 290.01,-180"/>
<text text-anchor="middle" x="230.51" y="-159.8" font-family="Times,serif" font-size="9.00">Ⓜ StartTimerAndWait</text>
</g>
<!-- WaitAndHandleResponse&#45;&gt;StartTimerAndWait -->
<g id="edge14" class="edge">
<title>WaitAndHandleResponse&#45;&gt;StartTimerAndWait</title>
<path fill="none" stroke="black" d="M421.94,-215.97C385.15,-205.79 338.31,-192.83 300.17,-182.27"/>
<polygon fill="black" stroke="black" points="300.74,-178.8 290.17,-179.51 298.87,-185.55 300.74,-178.8"/>
</g>
<!-- AssessSequenceAndHandleUserResponse -->
<g id="node20" class="node">
<title>AssessSequenceAndHandleUserResponse</title>
<polygon fill="orange" stroke="black" points="594.01,-180 373.01,-180 373.01,-144 594.01,-144 594.01,-180"/>
<text text-anchor="middle" x="483.51" y="-159.8" font-family="Times,serif" font-size="9.00">Ⓜ AssessSequenceAndHandleUserResponse</text>
</g>
<!-- WaitAndHandleResponse&#45;&gt;AssessSequenceAndHandleUserResponse -->
<g id="edge19" class="edge">
<title>WaitAndHandleResponse&#45;&gt;AssessSequenceAndHandleUserResponse</title>
<path fill="none" stroke="black" d="M483.51,-215.7C483.51,-207.98 483.51,-198.71 483.51,-190.11"/>
<polygon fill="black" stroke="black" points="487.01,-190.1 483.51,-180.1 480.01,-190.1 487.01,-190.1"/>
</g>
<!-- StartResponseTimer -->
<g id="node16" class="node">
<title>StartResponseTimer</title>
<ellipse fill="gray" stroke="black" cx="63.51" cy="-90" rx="63.52" ry="18"/>
<text text-anchor="middle" x="63.51" y="-87.8" font-family="Times,serif" font-size="9.00">StartResponseTimer</text>
</g>
<!-- StartTimerAndWait&#45;&gt;StartResponseTimer -->
<g id="edge15" class="edge">
<title>StartTimerAndWait&#45;&gt;StartResponseTimer</title>
<path fill="none" stroke="black" d="M189.66,-143.88C164.57,-133.36 132.46,-119.9 106.91,-109.19"/>
<polygon fill="black" stroke="black" points="108.05,-105.87 97.47,-105.24 105.34,-112.33 108.05,-105.87"/>
</g>
<!-- NudgeTimerAndHandleResponse -->
<g id="node17" class="node">
<title>NudgeTimerAndHandleResponse</title>
<polygon fill="orange" stroke="black" points="315.51,-108 145.51,-108 145.51,-72 315.51,-72 315.51,-108"/>
<text text-anchor="middle" x="230.51" y="-87.8" font-family="Times,serif" font-size="9.00">NudgeTimerAndHandleResponse</text>
</g>
<!-- StartTimerAndWait&#45;&gt;NudgeTimerAndHandleResponse -->
<g id="edge16" class="edge">
<title>StartTimerAndWait&#45;&gt;NudgeTimerAndHandleResponse</title>
<path fill="none" stroke="black" d="M230.51,-143.7C230.51,-135.98 230.51,-126.71 230.51,-118.11"/>
<polygon fill="black" stroke="black" points="234.01,-118.1 230.51,-108.1 227.01,-118.1 234.01,-118.1"/>
</g>
<!-- NudgeTimer -->
<g id="node18" class="node">
<title>NudgeTimer</title>
<ellipse fill="gray" stroke="black" cx="165.51" cy="-18" rx="43.1" ry="18"/>
<text text-anchor="middle" x="165.51" y="-15.8" font-family="Times,serif" font-size="9.00">NudgeTimer</text>
</g>
<!-- NudgeTimerAndHandleResponse&#45;&gt;NudgeTimer -->
<g id="edge17" class="edge">
<title>NudgeTimerAndHandleResponse&#45;&gt;NudgeTimer</title>
<path fill="none" stroke="black" d="M214.44,-71.7C206.33,-62.97 196.38,-52.24 187.57,-42.75"/>
<polygon fill="black" stroke="black" points="189.87,-40.09 180.5,-35.14 184.74,-44.85 189.87,-40.09"/>
</g>
<!-- HandleTimerResponse -->
<g id="node19" class="node">
<title>HandleTimerResponse</title>
<ellipse fill="gray" stroke="black" cx="296.51" cy="-18" rx="69.06" ry="18"/>
<text text-anchor="middle" x="296.51" y="-15.8" font-family="Times,serif" font-size="9.00">HandleTimerResponse</text>
</g>
<!-- NudgeTimerAndHandleResponse&#45;&gt;HandleTimerResponse -->
<g id="edge18" class="edge">
<title>NudgeTimerAndHandleResponse&#45;&gt;HandleTimerResponse</title>
<path fill="none" stroke="black" d="M246.82,-71.7C254.93,-63.09 264.87,-52.55 273.72,-43.17"/>
<polygon fill="black" stroke="black" points="276.52,-45.3 280.84,-35.62 271.43,-40.5 276.52,-45.3"/>
</g>
<!-- AssessUserSequence -->
<g id="node21" class="node">
<title>AssessUserSequence</title>
<ellipse fill="gray" stroke="black" cx="398.51" cy="-90" rx="65.48" ry="18"/>
<text text-anchor="middle" x="398.51" y="-87.8" font-family="Times,serif" font-size="9.00">AssessUserSequence</text>
</g>
<!-- AssessSequenceAndHandleUserResponse&#45;&gt;AssessUserSequence -->
<g id="edge20" class="edge">
<title>AssessSequenceAndHandleUserResponse&#45;&gt;AssessUserSequence</title>
<path fill="none" stroke="black" d="M462.5,-143.7C451.55,-134.68 438.03,-123.55 426.24,-113.83"/>
<polygon fill="black" stroke="black" points="428.35,-111.04 418.4,-107.38 423.9,-116.44 428.35,-111.04"/>
</g>
<!-- HandleUserResponse -->
<g id="node22" class="node">
<title>HandleUserResponse</title>
<ellipse fill="gray" stroke="black" cx="548.51" cy="-90" rx="66.29" ry="18"/>
<text text-anchor="middle" x="548.51" y="-87.8" font-family="Times,serif" font-size="9.00">HandleUserResponse</text>
</g>
<!-- AssessSequenceAndHandleUserResponse&#45;&gt;HandleUserResponse -->
<g id="edge21" class="edge">
<title>AssessSequenceAndHandleUserResponse&#45;&gt;HandleUserResponse</title>
<path fill="none" stroke="black" d="M499.58,-143.7C507.56,-135.09 517.35,-124.55 526.07,-115.17"/>
<polygon fill="black" stroke="black" points="528.83,-117.33 533.07,-107.62 523.7,-112.57 528.83,-117.33"/>
</g>
<!-- DecideRepeatAndSocialAction -->
<g id="node23" class="node">
<title>DecideRepeatAndSocialAction</title>
<polygon fill="orange" stroke="black" points="802.51,-108 632.51,-108 632.51,-72 802.51,-72 802.51,-108"/>
<text text-anchor="middle" x="717.51" y="-87.8" font-family="Times,serif" font-size="9.00">Ⓜ DecideRepeatAndSocialAction</text>
</g>
<!-- AssessSequenceAndHandleUserResponse&#45;&gt;DecideRepeatAndSocialAction -->
<g id="edge22" class="edge">
<title>AssessSequenceAndHandleUserResponse&#45;&gt;DecideRepeatAndSocialAction</title>
<path fill="none" stroke="black" d="M540.45,-143.97C573.72,-134.01 615.86,-121.41 650.69,-110.99"/>
<polygon fill="black" stroke="black" points="651.73,-114.33 660.31,-108.11 649.73,-107.62 651.73,-114.33"/>
</g>
<!-- RepeatOrEnd -->
<g id="node24" class="node">
<title>RepeatOrEnd</title>
<ellipse fill="gray" stroke="black" cx="654.51" cy="-18" rx="46.38" ry="18"/>
<text text-anchor="middle" x="654.51" y="-15.8" font-family="Times,serif" font-size="9.00">RepeatOrEnd</text>
</g>
<!-- DecideRepeatAndSocialAction&#45;&gt;RepeatOrEnd -->
<g id="edge23" class="edge">
<title>DecideRepeatAndSocialAction&#45;&gt;RepeatOrEnd</title>
<path fill="none" stroke="black" d="M701.94,-71.7C694.08,-62.97 684.43,-52.24 675.89,-42.75"/>
<polygon fill="black" stroke="black" points="678.33,-40.24 669.04,-35.14 673.13,-44.92 678.33,-40.24"/>
</g>
<!-- DecideSocialAction -->
<g id="node25" class="node">
<title>DecideSocialAction</title>
<ellipse fill="gray" stroke="black" cx="780.51" cy="-18" rx="61.55" ry="18"/>
<text text-anchor="middle" x="780.51" y="-15.8" font-family="Times,serif" font-size="9.00">DecideSocialAction</text>
</g>
<!-- DecideRepeatAndSocialAction&#45;&gt;DecideSocialAction -->
<g id="edge24" class="edge">
<title>DecideRepeatAndSocialAction&#45;&gt;DecideSocialAction</title>
<path fill="none" stroke="black" d="M733.08,-71.7C740.82,-63.09 750.31,-52.55 758.76,-43.17"/>
<polygon fill="black" stroke="black" points="761.46,-45.4 765.55,-35.62 756.26,-40.71 761.46,-45.4"/>
</g>
<!-- RepeatOrEnd* -->
<g id="node27" class="node">
<title>RepeatOrEnd*</title>
<ellipse fill="gray" stroke="black" cx="660.51" cy="-162" rx="48.49" ry="18"/>
<text text-anchor="middle" x="660.51" y="-159.8" font-family="Times,serif" font-size="9.00">RepeatOrEnd*</text>
</g>
<!-- DecideRepeatAndSocialAction2&#45;&gt;RepeatOrEnd* -->
<g id="edge26" class="edge">
<title>DecideRepeatAndSocialAction2&#45;&gt;RepeatOrEnd*</title>
<path fill="none" stroke="black" d="M688.36,-215.7C684.11,-207.64 678.95,-197.89 674.24,-188.98"/>
<polygon fill="black" stroke="black" points="677.32,-187.31 669.55,-180.1 671.13,-190.58 677.32,-187.31"/>
</g>
<!-- DecideSocialAction* -->
<g id="node28" class="node">
<title>DecideSocialAction*</title>
<ellipse fill="gray" stroke="black" cx="791.51" cy="-162" rx="64.17" ry="18"/>
<text text-anchor="middle" x="791.51" y="-159.8" font-family="Times,serif" font-size="9.00">DecideSocialAction*</text>
</g>
<!-- DecideRepeatAndSocialAction2&#45;&gt;DecideSocialAction* -->
<g id="edge27" class="edge">
<title>DecideRepeatAndSocialAction2&#45;&gt;DecideSocialAction*</title>
<path fill="none" stroke="black" d="M720.74,-215.7C733.05,-206.53 748.31,-195.17 761.51,-185.34"/>
<polygon fill="black" stroke="black" points="763.9,-187.92 769.83,-179.14 759.72,-182.31 763.9,-187.92"/>
</g>
<!-- CheckEndAndEndSequence -->
<g id="node30" class="node">
<title>CheckEndAndEndSequence</title>
<polygon fill="orange" stroke="black" points="1030.51,-252 884.51,-252 884.51,-216 1030.51,-216 1030.51,-252"/>
<text text-anchor="middle" x="957.51" y="-231.8" font-family="Times,serif" font-size="9.00">CheckEndAndEndSequence</text>
</g>
<!-- EndOrRepeatFallback&#45;&gt;CheckEndAndEndSequence -->
<g id="edge29" class="edge">
<title>EndOrRepeatFallback&#45;&gt;CheckEndAndEndSequence</title>
<path fill="none" stroke="black" d="M957.51,-287.7C957.51,-279.98 957.51,-270.71 957.51,-262.11"/>
<polygon fill="black" stroke="black" points="961.01,-262.1 957.51,-252.1 954.01,-262.1 961.01,-262.1"/>
</g>
<!-- RepeatCurrentSequence -->
<g id="node33" class="node">
<title>RepeatCurrentSequence</title>
<ellipse fill="gray" stroke="black" cx="1124.51" cy="-234" rx="75.77" ry="18"/>
<text text-anchor="middle" x="1124.51" y="-231.8" font-family="Times,serif" font-size="9.00">RepeatCurrentSequence</text>
</g>
<!-- EndOrRepeatFallback&#45;&gt;RepeatCurrentSequence -->
<g id="edge32" class="edge">
<title>EndOrRepeatFallback&#45;&gt;RepeatCurrentSequence</title>
<path fill="none" stroke="black" d="M994.57,-289.46C1019.65,-278.95 1052.92,-265.01 1079.51,-253.86"/>
<polygon fill="black" stroke="black" points="1081.11,-256.99 1088.98,-249.89 1078.4,-250.53 1081.11,-256.99"/>
</g>
<!-- CheckEndCurrentSequence -->
<g id="node31" class="node">
<title>CheckEndCurrentSequence</title>
<ellipse fill="gray" stroke="black" cx="957.51" cy="-162" rx="84.09" ry="18"/>
<text text-anchor="middle" x="957.51" y="-159.8" font-family="Times,serif" font-size="9.00">CheckEndCurrentSequence</text>
</g>
<!-- CheckEndAndEndSequence&#45;&gt;CheckEndCurrentSequence -->
<g id="edge30" class="edge">
<title>CheckEndAndEndSequence&#45;&gt;CheckEndCurrentSequence</title>
<path fill="none" stroke="black" d="M957.51,-215.7C957.51,-207.98 957.51,-198.71 957.51,-190.11"/>
<polygon fill="black" stroke="black" points="961.01,-190.1 957.51,-180.1 954.01,-190.1 961.01,-190.1"/>
</g>
<!-- EndCurrentSequence -->
<g id="node32" class="node">
<title>EndCurrentSequence</title>
<ellipse fill="gray" stroke="black" cx="1127.51" cy="-162" rx="67.6" ry="18"/>
<text text-anchor="middle" x="1127.51" y="-159.8" font-family="Times,serif" font-size="9.00">EndCurrentSequence</text>
</g>
<!-- CheckEndAndEndSequence&#45;&gt;EndCurrentSequence -->
<g id="edge31" class="edge">
<title>CheckEndAndEndSequence&#45;&gt;EndCurrentSequence</title>
<path fill="none" stroke="black" d="M999.1,-215.88C1024.46,-205.43 1056.87,-192.08 1082.79,-181.41"/>
<polygon fill="black" stroke="black" points="1084.46,-184.51 1092.38,-177.47 1081.8,-178.04 1084.46,-184.51"/>
</g>
</g>
</svg>
